<svg width="128" height="37" viewBox="0 0 128 37" fill="none" xmlns="http://www.w3.org/2000/svg">
<path d="M0 24V0.399999H2.4V24H0ZM6 24V0.399999H7.2V24H6ZM10.8 24V0.399999H12V24H10.8ZM4.08 35.88H5.92V28.36H4.2V27.48H8.8V28.36H6.96V35.88H8.88V36.76H4.08V35.88ZM13.2031 24V0.399999H14.4031V24H13.2031ZM15.6031 24V0.399999H19.2031V24H15.6031ZM22.8031 24V0.399999H25.2031V24H22.8031ZM16.8431 27.48H17.8431L21.7231 34.36V27.48H22.8831V27.6C22.8031 27.6533 22.7631 27.72 22.7631 27.8C22.7365 27.8533 22.7231 27.9733 22.7231 28.16V36.76H21.9231L17.8031 29.48V36.76H16.8431V27.48ZM26.4062 24V0.399999H27.6063V24H26.4062ZM31.2063 24V0.399999H33.6063V24H31.2063ZM37.2063 24V0.399999H38.4063V24H37.2063ZM30.4463 27.48H35.7663V28.4H31.4863V31.32H34.9663V32.2H31.4863V36.76H30.4463V27.48ZM39.6094 24V0.399999H40.8094V24H39.6094ZM42.0094 24V0.399999H44.4094V24H42.0094ZM45.6094 24V0.399999H49.2094V24H45.6094ZM45.4494 36.92C44.516 36.92 43.7694 36.5733 43.2094 35.88L43.8094 35.16L43.9294 35.04L44.0094 35.08C44.0094 35.1867 44.0227 35.28 44.0494 35.36C44.1027 35.4133 44.1827 35.4933 44.2894 35.6C44.636 35.8667 45.0094 36 45.4094 36C45.916 36 46.276 35.8267 46.4894 35.48C46.7294 35.1333 46.8494 34.5333 46.8494 33.68V28.36H45.0494V27.48H49.2894V28.36H47.8494V33.64C47.876 34.4133 47.7827 35.04 47.5694 35.52C47.356 36 47.0627 36.36 46.6894 36.6C46.316 36.8133 45.9027 36.92 45.4494 36.92ZM52.8125 24V0.399999H54.0125V24H52.8125ZM57.6125 24V0.399999H62.4125V24H57.6125ZM63.6125 24V0.399999H64.8125V24H63.6125ZM59.4125 36.88C58.7992 36.88 58.2525 36.7333 57.7725 36.44C57.3192 36.1467 56.9592 35.7333 56.6925 35.2C56.3992 34.6667 56.2525 34.0533 56.2525 33.36C56.2525 32.6667 56.3992 32.0533 56.6925 31.52C56.9592 30.9867 57.3192 30.5733 57.7725 30.28C58.2525 29.96 58.7992 29.8 59.4125 29.8C60.0258 29.8 60.5592 29.96 61.0125 30.28C61.4925 30.5733 61.8658 30.9867 62.1325 31.52C62.3992 32.0533 62.5325 32.6667 62.5325 33.36C62.5325 34.0533 62.3992 34.6667 62.1325 35.2C61.8658 35.7333 61.4925 36.1467 61.0125 36.44C60.5592 36.7333 60.0258 36.88 59.4125 36.88ZM59.4125 36C59.7858 36 60.1325 35.88 60.4525 35.64C60.7458 35.4267 60.9858 35.12 61.1725 34.72C61.3325 34.2933 61.4125 33.8267 61.4125 33.32C61.4125 32.5467 61.2258 31.92 60.8525 31.44C60.4792 30.96 59.9992 30.72 59.4125 30.72C58.8258 30.72 58.3458 30.96 57.9725 31.44C57.5992 31.92 57.4125 32.5467 57.4125 33.32C57.4125 33.8267 57.4925 34.2933 57.6525 34.72C57.8392 35.12 58.0792 35.4267 58.3725 35.64C58.6658 35.88 59.0125 36 59.4125 36ZM66.0156 24V0.399999H67.2156V24H66.0156ZM69.6156 24V0.399999H74.4156V24H69.6156ZM76.8156 24V0.399999H78.0156V24H76.8156ZM72.1756 36.92C71.4556 36.92 70.8823 36.6533 70.4556 36.12C70.029 35.5867 69.829 34.8 69.8556 33.76V29.96H70.8956V33.76C70.8956 34.56 71.0423 35.1467 71.3356 35.52C71.6023 35.8933 71.9756 36.08 72.4556 36.08C72.9623 36.08 73.389 35.8667 73.7356 35.44C74.109 35.04 74.2956 34.4667 74.2956 33.72V29.96H75.3356V35.72C75.3356 35.96 75.3356 36.1467 75.3356 36.28C75.3623 36.44 75.4023 36.6 75.4556 36.76H74.4556C74.3756 36.6 74.3356 36.44 74.3356 36.28C74.309 36.1467 74.2956 35.96 74.2956 35.72C74.0823 36.0933 73.789 36.3867 73.4156 36.6C73.0423 36.8133 72.629 36.92 72.1756 36.92ZM79.2188 24V0.399999H80.4188V24H79.2188ZM82.8188 24V0.399999H84.0188V24H82.8188ZM86.4188 24V0.399999H91.2188V24H86.4188ZM87.0988 29.8C87.8188 29.8 88.4188 30.0533 88.8988 30.56L88.4188 31.36L88.3788 31.52L88.2588 31.44C88.2321 31.3333 88.2054 31.2533 88.1788 31.2C88.1254 31.12 88.0321 31.04 87.8988 30.96C87.6588 30.8 87.3654 30.72 87.0188 30.72C86.6721 30.72 86.3388 30.8133 86.0188 31C85.6988 31.16 85.4454 31.4267 85.2588 31.8C85.0454 32.1733 84.9388 32.6267 84.9388 33.16V36.76H83.8588V29.96H84.9788L84.9388 31.2C85.1254 30.7733 85.4188 30.4267 85.8188 30.16C86.2188 29.92 86.6454 29.8 87.0988 29.8ZM92.4219 24V0.399999H94.8219V24H92.4219ZM99.6219 24V0.399999H100.822V24H99.6219ZM102.022 24V0.399999H103.222V24H102.022ZM96.3819 29.96H97.4219V31.16C97.6885 30.76 98.0219 30.4267 98.4219 30.16C98.8219 29.92 99.2485 29.8 99.7019 29.8C100.315 29.8 100.809 30.0267 101.182 30.48C101.529 30.96 101.702 31.68 101.702 32.64V36.76H100.662V32.68C100.662 31.9867 100.555 31.4933 100.342 31.2C100.102 30.88 99.7952 30.72 99.4219 30.72C99.1019 30.72 98.7952 30.8133 98.5019 31C98.1819 31.1867 97.9152 31.44 97.7019 31.76C97.5152 32.08 97.4219 32.44 97.4219 32.84V36.76H96.3819V29.96ZM105.625 24V0.399999H106.825V24H105.625ZM109.225 24V0.399999H110.425V24H109.225ZM111.625 24V0.399999H114.025V24H111.625ZM112.145 29.8C113.105 29.8 113.838 30.0533 114.345 30.56C114.852 31.0667 115.105 31.9333 115.105 33.16V36.76H113.945V35.72C113.545 36.52 112.772 36.92 111.625 36.92C110.878 36.92 110.292 36.7467 109.865 36.4C109.438 36.0533 109.225 35.6 109.225 35.04C109.225 34.56 109.385 34.1467 109.705 33.8C109.998 33.4533 110.412 33.1733 110.945 32.96C111.452 32.7733 112.025 32.68 112.665 32.68C113.225 32.68 113.732 32.7067 114.185 32.76C114.132 32.0133 113.932 31.48 113.585 31.16C113.238 30.84 112.732 30.68 112.065 30.68C111.718 30.68 111.398 30.7467 111.105 30.88C110.785 31.0133 110.492 31.2 110.225 31.44L109.705 30.76C110.345 30.12 111.158 29.8 112.145 29.8ZM111.745 36.12C112.492 36.12 113.078 35.8933 113.505 35.44C113.932 35.0133 114.158 34.4 114.185 33.6C113.732 33.52 113.252 33.48 112.745 33.48C111.998 33.48 111.398 33.6133 110.945 33.88C110.518 34.12 110.305 34.4933 110.305 35C110.305 35.7467 110.785 36.12 111.745 36.12ZM118.828 24V0.399999H121.228V24H118.828ZM123.628 24V0.399999H124.828V24H123.628ZM126.028 24V0.399999H127.228V24H126.028ZM122.868 35.88H124.908V27.72H122.988V26.88H125.988V35.88H127.988V36.76H122.868V35.88Z" fill="white"/>
</svg>
